# xmcd CD database file
#
# Track frame offsets:
#	150
#	14993
#	29760
#	46911
#	63562
#	80477
#	96933
#	112639
#	129549
#	144154
#	162802
#
# Disc length: 2397 seconds
#
# Revision: 0
# Processed by: cddbd v1.5.2PL0 Copyright (c) Steve Scherf et al.
# Submitted via: CDex 1.51
#
DISCID=90095b0b
DTITLE=Stephanie Quayle - Love The Way You See Me
DYEAR=2017
DGENRE=Country
TTITLE0=Drinking With Dolly
TTITLE1=Winnebago
TTITLE2=Selfish
TTITLE3=Ugly
TTITLE4=I've Got Your Six
TTITLE5=You Should Have Told Me
TTITLE6=Post It
TTITLE7=Shoebox
TTITLE8=Love The Way You See Me
TTITLE9=Days Like These
TTITLE10=Second Thought
EXTD=YEAR: 2017
EXTT0=
EXTT1=
EXTT2=
EXTT3=
EXTT4=
EXTT5=
EXTT6=
EXTT7=
EXTT8=
EXTT9=
EXTT10=
PLAYORDER=
